# xmcd
#
# Track frame offsets: 
#        150
#        10041
#        19789
#        34749
#        43247
#        54382
#        63137
#        77011
#        88917
#        100438
#        129307
#        140103
#        152996
#        163388
#        173418
#        185285
#        197197
#        208592
#        218577
#        229592
#
# Disc length: 3231 seconds
#
# Revision: 0
# Processed by: cddbd v1.5.2PL0 Copyright (c) Steve Scherf et al.
# Submitted via: ExactAudioCopy v1.0b4
#
DISCID=100c9d14
DTITLE=Various Artist - The Best of American Folk and Blues [CD2]
DYEAR=2016
DGENRE=Blues
TTITLE0=Pete Seeger - Hammer Song
TTITLE1=John Lee Hooker - Dimples
TTITLE2=T-Bone Walker - I Wanna See My Baby
TTITLE3=Dave Van Ronk - Nobody Knows You When You're Down And Out
TTITLE4=B.B. King - Mean Ole Frisco
TTITLE5=Eddie Kirkland - Man Of Stone
TTITLE6=Walter Parham - George Pegram - Little Old Log Cabin In The Wo
TTITLE6=ods
TTITLE7=Albert King - I've Made Nights By Myself
TTITLE8=Lazy Lester - Patrol Blues
TTITLE9=Peggy Seeger - Love Henry
TTITLE10=Lonesome Sundown - I'm a Mojo Man
TTITLE11=The Kingston Trio - A Worried Man
TTITLE12=Smokey Hogg - I Love You Baby
TTITLE13=Woody Guthrie - Wreck Of The Old '97
TTITLE14=T-Bone Walker - Bye Bye Baby Memphis
TTITLE15=Slim Harpo - Late Last Night
TTITLE16=Freddy King - Heads Up
TTITLE17=Doc Watson - Peg and Awl
TTITLE18=Lightnin' Slim - I'm a Rollin' Stone
TTITLE19=Muddy Waters - Hoochie Coochie
EXTD=
EXTT0=
EXTT1=
EXTT2=
EXTT3=
EXTT4=
EXTT5=
EXTT6=
EXTT7=
EXTT8=
EXTT9=
EXTT10=
EXTT11=
EXTT12=
EXTT13=
EXTT14=
EXTT15=
EXTT16=
EXTT17=
EXTT18=
EXTT19=
PLAYORDER=
